<svg aria-hidden="true" style="width:0;height:0;position:absolute;overflow:hidden" xmlns="http://www.w3.org/2000/svg"><defs><symbol id="cart" viewBox="0 0 42 32"><path d="M37.306.292c-.282.042-.594.282-.772.587-.049.084-.581 1.366-1.185 2.849l-1.094 2.697h-7.851c-4.32 0-7.86-.006-7.867-.016-.01-.01.565-.019 1.279-.023.711-.003 1.217-.01 1.126-.016-.146-.01-.172-.023-.172-.078 0-.045.023-.062.091-.065.049-.003.38-.016.737-.029.357-.01-4.196-.023-10.119-.026L.711 6.166l-.156.078c-.221.114-.334.217-.435.402-.136.253-.143.438-.026.961.058.25.14.542.185.649.101.234.678 2.126 3.505 11.476l.844 2.775c.302.993.315 1.052.321 1.363.006.484.149.73.474.831.117.036 1.574.042 2.496.013.419-.013.519-.01.454.019-.045.023-.227.107-.409.195-2.015.957-2.7 3.589-1.421 5.469.88 1.295 2.483 1.882 3.959 1.454 2.006-.581 3.122-2.768 2.447-4.79a3.686 3.686 0 0 0-1.574-1.983c-.204-.123-.685-.347-.753-.347-.019 0-.045-.01-.052-.026-.01-.013.344-.026.782-.032.441-.003 2.869-.029 5.394-.055 5.206-.058 5.498-.062 4.349-.081-.454-.006-.714-.019-.574-.023.185-.01.25-.023.25-.058 0-.023.039-.052.091-.058.049-.006-.432-.016-1.064-.023l-1.152-.01 1.379-.023c.759-.013 3.009-.042 4.998-.062 1.989-.023 3.68-.045 3.758-.055.107-.013.136-.029.136-.078 0-.036.039-.084.091-.11a.89.89 0 0 0 .178-.14c.055-.062.419-.831.977-2.074.487-1.087 1.944-4.329 3.232-7.202 1.288-2.875 2.512-5.595 2.716-6.05.201-.451.38-.876.396-.941.023-.088 1.636-3.723 1.671-3.758.01-.013 1.483 1.555 1.606 1.71.224.276.636.347.854.143.253-.24.61-1.314.61-1.85v-.208l-.35-.35a12.801 12.801 0 0 1-.889-1.045c-.828-1.068-1.12-1.353-1.73-1.704-.428-.243-.695-.318-.974-.276zm-4.965 10.295c-.37.915-.675 1.668-.682 1.675a.69.69 0 0 1-.143-.039c-.114-.042-1.029-.052-6.504-.075-3.502-.013-5.777-.032-5.053-.042s1.201-.019 1.064-.026c-.195-.003-.253-.016-.253-.052s-.049-.052-.169-.062c-.094-.007.312-.016.899-.023.591-.007-.857-.023-3.213-.036-2.356-.01-6.39-.023-8.961-.026l-4.677-.003-.052-.188c-.156-.571-.639-2.434-.639-2.467 0-.029 1.616-.039 6.874-.042 3.778-.003 7.893-.016 9.142-.026 1.587-.016 1.999-.026 1.363-.036-.5-.007-.831-.016-.737-.023.117-.01.169-.026.169-.058 0-.036.062-.049.253-.058.136-.003-.37-.016-1.129-.023-.759-.01 1.876-.023 5.858-.032s7.244-.013 7.25-.01c.007.003-.292.756-.662 1.671zm-2.139 5.267-.49 1.217-5.598-.01c-3.08-.003-5.014-.013-4.3-.023s1.22-.019 1.129-.026c-.149-.006-.172-.016-.172-.071 0-.049.023-.065.091-.068.049-.003.38-.016.737-.029.357-.01-3.018-.023-7.5-.026l-8.146-.006-.24-.902c-.13-.493-.243-.925-.253-.957-.013-.052.334-.055 6.926-.058 3.82-.003 7.526-.016 8.24-.026 1.22-.023 1.253-.023.552-.036-.409-.007-.669-.016-.574-.023.12-.01.169-.026.169-.062s.058-.049.253-.052c.136-.007-.487-.016-1.389-.026s1.217-.019 4.709-.026l6.348-.007-.49 1.217zM28.56 19.56c0 .013-.224.568-.493 1.233l-.497 1.211h-4.216c-2.32 0-4.209-.006-4.203-.016.01-.006.321-.016.695-.016.844-.003.925-.013.925-.117v-.078l.967-.01c.529-.003-2.515-.01-6.767-.016-4.255-.003-7.734-.016-7.734-.026 0-.013-.11-.438-.243-.948-.136-.506-.24-.928-.234-.935.003-.006 3.71-.023 8.234-.036s7.526-.032 6.669-.042c-.857-.01-1.409-.019-1.224-.026.263-.006.331-.016.331-.052s.049-.052.172-.062c.091-.006-.24-.016-.74-.026-.568-.006.032-.019 1.607-.029 4.498-.029 6.75-.032 6.75-.01zm-9.467 2.434a.184.184 0 0 1-.081 0c-.023-.01-.006-.016.039-.016s.062.006.042.016z"/><path d="M22.29 16.834a.184.184 0 0 0 .081 0c.019-.01.003-.016-.042-.016s-.062.006-.039.016zM23.805 24.85c-1.542.24-2.746 1.555-2.866 3.125-.058.792.123 1.545.529 2.178 1.159 1.795 3.56 2.11 5.102.669 1.785-1.671 1.311-4.664-.905-5.702-.438-.204-.714-.263-1.275-.276a6.141 6.141 0 0 0-.584.006zM22.374 25.139c-.058.045-.058.049.013.013.039-.019.071-.042.071-.049 0-.026-.016-.019-.084.036zM22.228 25.24c-.042.052-.039.055.013.013s.068-.068.042-.068a.216.216 0 0 0-.055.055z"/><path d="M21.832 25.574c-1.324 1.266-1.532 3.288-.493 4.832.172.256.529.636.763.811.12.088.114.081-.032-.049a3.76 3.76 0 0 1-1.295-2.253c-.049-.332-.019-1.275.045-1.525.195-.759.535-1.34 1.078-1.85.153-.143.269-.26.26-.26a3.41 3.41 0 0 0-.325.292zm-1.103 2.798c-.006.058-.013.019-.013-.088s.006-.156.013-.107c.006.049.006.136 0 .195z"/><path d="M20.969 27.378c0 .036.01.045.019.019.01-.023.006-.052-.003-.062-.01-.013-.019.006-.016.042zM20.907 27.667c0 .052.006.071.016.039a.263.263 0 0 0 0-.097c-.01-.019-.016.003-.016.058zM20.878 27.976c0 .097.006.14.013.088a.882.882 0 0 0 0-.178c-.006-.049-.013-.006-.013.091zM20.842 28.268c0 .062.006.088.016.055a.363.363 0 0 0 0-.114c-.01-.029-.016-.003-.016.058zM20.878 28.56c0 .097.006.14.013.088a.882.882 0 0 0 0-.178c-.006-.049-.013-.006-.013.091zM20.907 28.884c0 .045.006.062.016.039a.184.184 0 0 0 0-.081c-.01-.019-.016-.003-.016.042zM20.936 29.034c0 .036.01.045.019.019.01-.023.006-.052-.003-.062-.01-.013-.019.006-.016.042zM20.969 29.163c0 .036.01.045.019.019.01-.023.006-.052-.003-.062-.01-.013-.019.006-.016.042zM21.03 29.387c0 .016.016.055.032.081s.032.032.032.016c0-.019-.016-.055-.032-.081s-.032-.036-.032-.016zM22.264 31.331c0 .01.029.032.065.052s.065.026.065.019c0-.01-.029-.032-.065-.052s-.065-.026-.065-.019zM22.523 31.497c0 .023.263.153.279.14.006-.01-.055-.045-.133-.084-.081-.039-.146-.065-.146-.055z"/></symbol><symbol id="icon-about-1" viewBox="0 0 21 32"><path fill="#ffa5ba" style="fill:var(--color1,#ffa5ba)" d="M2.333.144c-.349.188-.552.563-.552 1.006.006.813.209 1.556.614 2.2l.178.294-.338.381c-.381.425-.473.581-.644 1.088-.141.412-.154 1.162-.031 1.581.429 1.437 1.854 2.269 3.247 1.9.473-.125.762-.282 1.203-.657l.375-.312.35.175c.196.1.528.243.742.324l.381.138v.7c0 1.106.227 1.763.81 2.356s1.498.9 2.291.762c.564-.1 1.117-.381 1.491-.762.584-.594.811-1.251.811-2.356v-.7l.387-.138a9.56 9.56 0 0 0 .737-.325l.349-.175.374.312c.442.375.731.531 1.203.657 1.394.369 2.819-.463 3.248-1.9.123-.419.111-1.169-.031-1.581-.172-.507-.264-.663-.644-1.088l-.337-.381.178-.294c.405-.643.608-1.388.614-2.2 0-.444-.204-.819-.553-1.006l-.264-.144H2.596l-.264.144zm14.736 1.955c0 .019-.179.313-.399.662-.651 1.032-.626 1.256.239 2.17.314.331.602.662.645.737.233.463-.234 1.038-.749.919-.124-.026-.394-.243-.787-.631-.786-.775-1.056-.863-1.658-.518-.694.399-1.578.806-2.008.924-.608.175-.817.307-.976.637-.129.256-.141.363-.141 1.363 0 1.231-.05 1.431-.399 1.6-.252.125-.301.125-.553 0-.35-.169-.399-.369-.399-1.6 0-1-.013-1.107-.135-1.363-.166-.324-.374-.462-.982-.637-.528-.15-1.308-.493-1.738-.774-.405-.262-.762-.363-1.043-.313-.185.038-.369.181-.86.662-.405.394-.694.625-.817.65-.509.119-.976-.463-.742-.919.043-.075.332-.406.644-.737.865-.913.89-1.137.239-2.169-.221-.349-.399-.643-.399-.662 0-.025 2.929-.037 6.508-.037s6.508.013 6.508.037zM.485 13.206c-.314.212-.485.512-.485.844 0 .225 3.119 16.925 3.229 17.275.055.194.282.425.522.55.227.125.387.125 6.809.125s6.582 0 6.809-.125c.239-.125.467-.356.522-.55.111-.35 3.229-17.05 3.229-17.275 0-.331-.172-.631-.485-.844l-.209-.144H.694l-.209.144zm18.21 2.275c-.061.5-.418 1.587-.682 2.081-1.283 2.375-3.715 3.819-6.729 3.987-2.278.132-4.205-.331-5.82-1.393a7.057 7.057 0 0 1-2.247-2.402l-.018-.035c-.307-.544-.712-1.713-.774-2.238l-.043-.356h16.356l-.043.356zM4.39 21.919c2.634 1.775 6.569 2.244 9.885 1.169a10.708 10.708 0 0 0 3.18-1.687c.276-.219.294-.219.264-.082-.019.081-.381 1.994-.804 4.244s-.78 4.156-.798 4.232l-.031.143H5.034l-.031-.143c-.018-.075-.374-1.981-.798-4.232s-.786-4.163-.804-4.243c-.031-.138-.013-.138.264.081.16.125.491.356.724.518z"/></symbol><symbol id="icon-about-2" viewBox="0 0 32 32"><path fill="#ffa5ba" style="fill:var(--color1,#ffa5ba)" d="M29.626 21.411c-1.292-.458-2.381-.344-3.242.018.145-.877.47-1.832 1.169-2.481a1.065 1.065 0 1 0-1.448-1.561c-1.229 1.14-1.706 2.749-1.874 4.081a3.929 3.929 0 0 0-1.035-.308l-.023-.003 1.89-9.83a1.064 1.064 0 0 0-1.045-1.266h-.205c.094-.5.141-.997.138-1.47-.016-1.994-.903-3.495-2.374-4.017-1.409-.5-2.589-.35-3.507.066.146-.976.495-2.063 1.282-2.794A1.065 1.065 0 1 0 17.904.285c-1.32 1.226-1.815 2.966-1.981 4.387-.735-.348-1.644-.526-2.709-.33-1.094-1.571-2.612-2.295-4.09-1.941-1.451.348-2.358 1.115-2.9 1.962-.41-.899-.712-2.001-.452-3.036A1.065 1.065 0 0 0 3.708.799l-.002.007c-.439 1.746.095 3.475.73 4.758-1.016.138-2.118.65-3.049 1.866-.578.755-.773 1.698-.596 2.7a1.066 1.066 0 0 0-.672 1.204l-.001-.007 3.809 19.809c.096.502.535.864 1.046.864H20.21c.51 0 .949-.362 1.046-.864l.037-.195c.287.198.595.364.927.486 1.267.472 2.447.278 3.044.118.316.084.795.179 1.364.179.506 0 1.084-.075 1.68-.297 2.36-.879 3.615-3.839 3.596-6.178-.015-1.904-.865-3.34-2.275-3.839zm-6.951-9.22c-.491 4.705-4.452 7.909-9.971 7.909s-9.481-3.204-9.971-7.909h19.942zm-6.643-4.676a1.048 1.048 0 0 0 1.862 0 2.66 2.66 0 0 1 .76-.771l.01-.006c.629-.408 1.35-.46 2.203-.157.851.301.952 1.518.956 2.027a5.74 5.74 0 0 1-.19 1.453h-7.126c.236-1.19.094-2.492-.289-3.669.392.022.751.149 1.055.351l-.008-.005c.31.205.567.465.763.767l.006.01zM3.077 8.724c.55-.719 1.183-1.069 1.933-1.069h.002c.57 0 1.016.207 1.066.232.341.189.749.172 1.078-.037.332-.211.51-.592.481-.983-.006-.077-.115-1.894 1.983-2.397.877-.211 1.626.754 1.906 1.178.808 1.221 1.222 3.108.777 4.413H2.955c-.141-.443-.179-.943.122-1.336zM5.852 29.87 3.741 18.893c.138.132.28.262.428.388 2.208 1.901 5.239 2.948 8.535 2.948s6.328-1.047 8.535-2.948l.152-.134-.431 2.243-.061.02c-1.411.5-2.261 1.935-2.276 3.839-.01 1.165.297 2.483.898 3.622l-.192.998H5.852zm21.71-.438c-.943.351-1.881.017-1.916.004a1.034 1.034 0 0 0-.775.003l.007-.003c-.01.004-.96.352-1.917-.004-1.338-.499-2.223-2.556-2.21-4.166.004-.465.095-1.578.858-1.849.279-.107.601-.17.937-.175h.002c1.107 0 1.658.812 1.782 1.024a1.046 1.046 0 0 0 1.862 0c.156-.265.977-1.468 2.721-.849.763.271.854 1.383.858 1.85.013 1.609-.872 3.667-2.21 4.165z"/></symbol><symbol id="icon-about-3" viewBox="0 0 28 32"><path fill="#ffa5ba" style="fill:var(--color1,#ffa5ba);stroke:var(--color1,#ffa5ba)" stroke="#ffa5ba" stroke-width=".308" d="M.666 11.161c.588 2.695 1.895 5.088 3.953 7.162 1.839 1.86 3.455 2.991 6.008 4.164l1.238.582v8.47h1.73v-7.902l.159.047h.001c.23.066.567.066.796 0h.001l.159-.047v7.902h1.73v-8.481l1.179-.536c2.469-1.138 4.263-2.372 6.008-4.142 2.786-2.829 4.217-6.052 4.217-9.561.012-3.85-2.01-7-5.214-8.076-.689-.239-1.054-.274-2.316-.262M.666 11.161 14.28 2.856l-.097-.073M.666 11.161C.532 10.546.464 9.706.461 8.885s.06-1.636.194-2.201c.722-3.188 2.943-5.549 5.82-6.152M.666 11.161 6.475.532m13.842-.05zm0 0c-.658.006-1.07.02-1.444.073-.376.054-.709.146-1.208.303h-.002c-1.188.386-2.356.994-3.132 1.632l-.001.001-.346.291m-.001.001-.543-.401C11.967 1.151 10.255.552 8.244.471h-.001A15.34 15.34 0 0 0 7.183.47l.025-.001c-.313.01-.586.031-.733.063m7.708 2.251L6.475.532m6.684 3.701h-.001c-.238-.226-.669-.537-1.14-.833a9.88 9.88 0 0 0-1.335-.718 9.319 9.319 0 0 0-1.437-.408l-.064-.011c-1.975-.362-3.489.022-4.825 1.21l-.001.001a6.742 6.742 0 0 0-.796.843 2.988 2.988 0 0 0-.224.317l-.007.013c-.203-.019.188.05.58.117l.572.081c1.231.192 2.186.449 3.209.943 1.02.491 2.103 1.214 3.593 2.329l.001.001c.605.465 1.626 1.059 2.651 1.541l.002.001c.458.226.898.452 1.238.636.17.092.316.175.428.242.055.034.103.065.142.091a.576.576 0 0 1 .098.08c.128.137.234.274.318.447s.142.372.182.631c.081.512.098 1.281.098 2.57 0 1.17.003 1.785.033 2.135.015.175.036.271.061.332a.354.354 0 0 0 .096.134c.246.24.583.23.762.031l.004-.004c.049-.052.097-.135.125-.456.027-.32.033-.837.033-1.723 0-1.172.029-1.886.16-2.378.066-.25.16-.448.292-.622.13-.172.293-.314.487-.459l.002-.001a1.77 1.77 0 0 1 .647-.308c.271-.071.642-.124 1.24-.193 1.865-.207 2.942-.447 4.231-.937.404-.154.703-.269.927-.372.225-.103.357-.188.439-.273a.501.501 0 0 0 .134-.302c.02-.142.014-.324.002-.588V8.37a8.89 8.89 0 0 0-.255-1.706v-.001c-.709-2.682-2.922-4.56-5.317-4.56-1.787 0-3.967.839-5.314 2.06l-.001.001c-.22.197-.405.352-.572.459s-.327.175-.495.182a.843.843 0 0 1-.486-.149 3.572 3.572 0 0 1-.517-.425zM9.013 8.598l-.001-.001C7.78 7.683 6.435 7.013 5.25 6.719a13.097 13.097 0 0 0-1.743-.29l-.06-.005a6.762 6.762 0 0 0-.712-.039h-.003c-.079 0-.155.007-.23.02l.008-.001c-.049.095-.1.264-.148.496a8.718 8.718 0 0 0-.127.892c-.063.665-.078 1.407-.02 1.948.316 2.926 1.588 5.398 4.031 7.743h.001c1.927 1.865 4.326 3.319 7.044 4.236l.002.001.862.305.875-.305c2.542-.871 5.036-2.326 6.844-4.018 1.246-1.168 1.889-1.964 2.711-3.37v-.001c.255-.428.604-1.204.874-1.892.135-.343.249-.662.32-.9.026-.086.046-.158.058-.217l-.145.041c-.201.06-.473.151-.767.26h-.001c-1.188.433-2.967.816-4.401.944h-.001l-.063.005c-.323.026-.548.045-.716.089-.166.043-.252.106-.311.215-.067.126-.107.329-.127.677-.018.322-.018.746-.018 1.313v.121c0 1.098-.014 1.746-.096 2.184a1.762 1.762 0 0 1-.194.563l.005-.009a1.969 1.969 0 0 1-.327.417c-.235.246-.47.425-.734.54s-.546.164-.871.164c-.5 0-.927-.099-1.284-.317s-.63-.546-.835-.983c-.105-.223-.164-.436-.198-.864-.033-.423-.042-1.067-.042-2.156 0-.906-.009-1.537-.031-1.957a4.5 4.5 0 0 0-.046-.495l.003.025a.828.828 0 0 0-.027-.123l.002.006a.149.149 0 0 0-.011-.028v.001a1.009 1.009 0 0 0-.088-.066l-.003-.002a3.038 3.038 0 0 0-.208-.122l-.017-.008a7.574 7.574 0 0 0-.598-.288l-.057-.022c-1.006-.42-2.332-1.164-3.137-1.761-.295-.219-.959-.703-1.481-1.084h-.001zM2.49 6.407c-.002.001-.002.001 0 0zm.037-.037-.001.001.001-.002z"/></symbol><symbol id="icon-btn-arrow" viewBox="0 0 26 32"><path fill="none" stroke="#d41443" style="stroke:var(--color2,#d41443)" stroke-linejoin="round" stroke-linecap="round" stroke-width="6.4" d="M3.542 3.2 20.368 16 3.542 28.8"/></symbol><symbol id="icon-btn-arrow2" viewBox="0 0 26 32"><path d="M3.542 3.2 20.368 16 3.542 28.8"/></symbol><symbol id="icon-btn-arrow-white" viewBox="0 0 22 32"><path fill="none" stroke="#fff" style="stroke:var(--color3,#fff)" stroke-linejoin="round" stroke-linecap="round" stroke-width="6.4" d="M4.49 3.2 18.186 16 4.49 28.8"/></symbol><symbol id="icon-Burger" viewBox="0 0 46 32"><path fill="none" stroke="#d41443" style="stroke:var(--color2,#d41443)" stroke-width="2.286" d="M0 2.286h45.714M0 16h45.714M0 29.714h45.714"/></symbol><symbol id="icon-close" viewBox="0 0 32 32"><path fill="none" stroke="#fff" style="stroke:var(--color3,#fff)" stroke-width="2" d="m2.52 2 26.96 28M2 29.48 30 2.52"/></symbol><symbol id="icon-customers-comma" viewBox="0 0 43 32"><path fill="#e1e1e1" style="fill:var(--color4,#e1e1e1)" d="M32.014 0c1.928 0 3.75.52 5.464 1.561s3.107 2.537 4.178 4.488c1.029 1.951 1.543 4.25 1.543 6.894s-.643 5.225-1.928 7.74c-.429.91-1.2 2.081-2.315 3.512a63.65 63.65 0 0 1-3.214 3.707L31.692 32l-2.893-4.813a22.225 22.225 0 0 0 5.306-4.646l.03-.037c1.542-1.821 2.314-3.49 2.314-5.008 0-.781-.171-1.41-.514-1.886a8.361 8.361 0 0 1-5.014 1.626c-1.328 0-2.593-.412-3.793-1.236a8.638 8.638 0 0 1-2.935-3.078l-.022-.043c-.771-1.258-1.157-2.558-1.157-3.902 0-1.518.45-2.97 1.35-4.358a10.313 10.313 0 0 1 3.364-3.356l.044-.025C29.142.414 30.556.002 32.014.002zM8.936 0c1.928 0 3.75.52 5.464 1.561s3.107 2.536 4.178 4.488c1.029 1.951 1.543 4.25 1.543 6.894 0 1.864-.236 3.534-.707 5.008-.472 1.518-1.286 3.1-2.443 4.748-1.114 1.561-2.164 2.862-3.15 3.902-.986 1.084-2.7 2.883-5.143 5.398l-2.893-4.813a22.225 22.225 0 0 0 5.306-4.646l.03-.037c1.542-1.821 2.314-3.49 2.314-5.008 0-.781-.172-1.41-.514-1.886a8.361 8.361 0 0 1-5.014 1.626c-1.328 0-2.593-.412-3.793-1.236a8.638 8.638 0 0 1-2.935-3.078l-.022-.043C.386 11.62 0 10.32 0 8.976c0-1.518.429-2.97 1.286-4.358A10.313 10.313 0 0 1 4.65 1.262l.045-.025C6.065.413 7.479.001 8.937.001z"/></symbol><symbol id="icon-customers-house" viewBox="0 0 35 32"><path fill="#d31342" style="fill:var(--color5,#d31342)" d="M32.64 15.4a1.539 1.539 0 0 0-.128-2.223l-.002-.002L17.737.426a1.849 1.849 0 0 0-1.184-.425c-.466 0-.892.171-1.218.454l.002-.002L.516 13.856a1.53 1.53 0 0 0-.072 2.222l.373.381c.613.635 1.611.709 2.224.168l1.107-.979v14.328a1.6 1.6 0 0 0 1.6 1.589H11.55a1.6 1.6 0 0 0 1.6-1.589V19.951h7.371v10.024c-.013.88.624 1.589 1.515 1.589h6.134a1.6 1.6 0 0 0 1.6-1.589V15.849l.685.592c.376.325 1.168.064 1.765-.587l.421-.453z"/></symbol><symbol id="icon-facebook" viewBox="0 0 16 32"><path fill="#fff" style="fill:var(--color3,#fff)" d="M14.143 15.971H10.11v14.865H3.998V15.971H1.092v-5.222h2.906V7.367c0-2.417 1.142-6.204 6.167-6.204l4.527.019v5.072h-3.284c-.538 0-1.297.272-1.297 1.425v3.073h4.567l-.534 5.219z"/></symbol><symbol id="icon-github" viewBox="0 0 32 32"><path fill="#fff" style="fill:var(--color3,#fff)" d="M16 0C7.211 0 0 7.211 0 16c0 7.499 5.262 14.312 12.25 16v-5.293a3.921 3.921 0 0 1-2.062-.06l.028.007c-.946-.278-1.714-.909-2.285-1.869-.363-.613-1.008-1.28-1.68-1.23l-.165-1.867c1.454-.125 2.71.886 3.456 2.139.333.558.715.885 1.205 1.029.472.141.981.074 1.573-.136.149-1.186.693-1.629 1.104-2.256-4.168-.621-5.829-2.832-6.488-4.576-.874-2.318-.405-5.213 1.139-7.043.03-.035.085-.128.064-.192-.709-2.141.154-3.91.186-4.098.818.24.95-.243 3.552 1.336l.448.27c.189.112.128.048.317.032a13.246 13.246 0 0 1 3.349-.469h.01c1.136.014 2.272.176 3.403.483l.146.016c-.013-.003.04-.01.128-.062 3.248-1.968 3.131-1.325 4.003-1.608.032.189.882 1.987.182 4.099-.096.291 2.816 2.957 1.202 7.235-.659 1.744-2.32 3.957-6.486 4.578.534.816 1.176 1.248 1.173 2.928v6.606c6.986-1.688 12.25-8.501 12.25-16 0-8.789-7.211-16-16-16z"/></symbol><symbol id="icon-logo" viewBox="0 0 127 32"><path fill="#fff" style="fill:var(--color3,#fff)" d="M31.36 16.32C31.36 24.98 24.483 32 16 32S.64 24.98.64 16.32 7.517.64 16 .64s15.36 7.02 15.36 15.68z"/><path fill="#d41443" style="fill:var(--color2,#d41443)" d="M11.849.561C4.444 2.804 0 8.635 0 16.003c0 6.022 3.091 11.277 8.179 13.904 2.64 1.345 3.027.384.579-1.474-1.738-1.409-2.061-2.05-2.061-4.421 0-1.666-.386-3.011-.966-3.524-1.158-.961-1.288-3.46-.128-4.357.45-.384.901-1.666.965-2.819.323-4.228 4.895-8.201 9.467-8.201s9.144 3.972 9.466 8.201c.064 1.153.515 2.435.966 2.819 1.158.897 1.03 3.396-.129 4.357-.579.513-.966 1.858-.966 3.524 0 2.371-.321 3.012-2.06 4.421-2.705 2.115-1.932 2.883 1.094 1.025 4.251-2.627 7.406-8.33 7.406-13.391 0-10.124-10.561-18.325-19.964-15.506z"/><path fill="#d41443" style="fill:var(--color2,#d41443)" d="M12.687 7.994c-1.16.513-2.125 1.154-2.125 1.538 0 .705 3.478 1.987 5.474 1.987s5.474-1.281 5.474-1.987c0-.768-3.993-2.499-5.603-2.499-.644.064-2.125.448-3.22.961zm33.164 3.332c-.966.256-1.158 1.089-1.158 5.702v5.382h4.572l-.193-5.574c-.193-5.83-.451-6.28-3.22-5.51zm7.535.32c-2.125 1.154-2.898 2.563-2.898 5.318 0 3.78 2.061 5.574 5.86 5.318 2.576-.192 2.833-.385 3.027-1.987s.064-1.73-1.932-1.602c-2.061.192-2.125.064-2.125-2.051s.129-2.243 1.997-2.05c1.545.128 2.125-.128 2.382-1.089.129-.641 0-1.538-.387-1.923-.901-.897-4.25-.897-5.924.064zm7.664.064c-.194.513-.258 3.012-.129 5.638l.193 4.742H65.3c3.864 0 4.186-.128 4.379-1.474.193-1.217-.064-1.409-2.06-1.409-1.288 0-2.319-.32-2.319-.641 0-.385.902-.641 1.932-.641 1.481 0 1.932-.256 1.932-1.281s-.451-1.281-1.932-1.281c-1.03 0-1.932-.32-1.932-.641 0-.385.837-.641 1.868-.641 1.804 0 3.027-1.409 2.254-2.627-.58-.961-7.985-.705-8.371.256zm12.943-.192c-2.125.833-2.962 2.307-3.027 4.998-.065 4.613 1.803 6.215 6.633 5.766 1.868-.128 2.189-.448 2.189-1.794 0-1.409-.257-1.602-2.061-1.409-1.546.128-2.125-.064-2.447-1.089-.58-1.987.644-3.588 2.705-3.588 1.224 0 1.868-.384 1.996-1.217.451-2.051-2.833-3.011-5.989-1.666zm7.921-.256c-.323.256-.515 2.883-.515 5.83v5.382l2.06-.192c1.61-.128 2.19-.577 2.512-1.795l.386-1.602.515 1.73c.387 1.474.837 1.795 2.512 1.795 2.769 0 3.091-.449 1.932-2.691-.708-1.41-.837-2.115-.322-2.627.837-.833.902-3.652.129-4.87-.644-1.025-8.371-1.858-9.208-.961zm5.28 3.46c0 .705-.257 1.281-.644 1.281-.322 0-.644-.576-.644-1.281s.322-1.282.644-1.282c.387 0 .644.577.644 1.282zm6.247-3.396c-.258.192-.451 2.819-.451 5.766v5.318h4.186c4.057 0 4.186-.064 4.186-1.602 0-1.346-.322-1.602-1.932-1.602-1.03 0-1.932-.32-1.932-.641 0-.385.708-.641 1.61-.641 1.159 0 1.61-.321 1.61-1.282s-.451-1.281-1.61-1.281c-.902 0-1.61-.32-1.61-.641 0-.384.902-.641 1.932-.641 1.61 0 1.932-.256 1.932-1.602 0-1.538-.193-1.602-3.735-1.602-2.061 0-3.992.192-4.186.448zm13.009-.064c-1.16.32-4.122 8.842-3.542 10.252.515 1.281 3.413 1.153 4.186-.192.579-1.089.644-1.089 1.803 0 1.482 1.281 4.701 1.474 4.701.256 0-.384-.644-2.947-1.482-5.574-1.288-4.228-1.674-4.805-3.027-4.933-.902 0-2.061.064-2.64.192zm1.803 5.83c-.193.641-.322.256-.322-.769 0-1.089.129-1.538.322-1.153.129.448.129 1.345 0 1.922zm7.47-5.766c-.58.192-.837 1.986-.837 5.702v5.382h1.868c1.61 0 1.932-.321 2.189-1.795.257-1.666.257-1.666.772-.32.258.833.902 1.474 1.352 1.474.515 0 1.224-.641 1.546-1.474.515-1.346.58-1.346.58.384.065 1.602.257 1.795 2.061 1.602l1.996-.192.065-5.318c.129-4.933.064-5.318-1.288-5.638-2.061-.512-3.799.705-4.379 3.076l-.451 2.115-.708-2.243c-.902-3.012-2.254-3.78-4.765-2.755zm-106.707.641c-.193.256-.387 1.089-.387 1.922 0 1.474.064 1.474 7.406 1.474 7.341 0 7.405 0 7.405-1.474 0-2.179-.579-2.435-2.64-1.409-2.319 1.217-7.213 1.217-9.531 0-1.03-.513-1.997-.705-2.254-.513zm-1.868 5.702c-1.03 1.089.708 1.538 5.731 1.538h5.409v2.243c0 1.217.322 2.243.644 2.243.386 0 .644-.961.644-2.179 0-2.115.129-2.243 2.576-2.435 1.416-.128 2.576-.512 2.576-.832 0-.705-16.872-1.282-17.581-.577z"/><path fill="#d41443" style="fill:var(--color2,#d41443)" d="M8.629 23.308c0 3.524 1.224 4.229 7.406 4.229s7.405-.705 7.405-4.229c0-1.538-.322-2.179-.966-2.179-.579 0-.965.577-.965 1.538 0 3.588-4.895 3.908-5.603.384-.322-1.858-.515-1.922-3.799-1.922H8.629v2.179zm3.993 7.24c.387 2.051 6.955 1.859 6.955-.128 0-.705-.837-.961-3.606-.961-3.027 0-3.542.192-3.348 1.089z"/></symbol><symbol id="icon-telegram" viewBox="0 0 44 32"><path fill="#fff" style="fill:var(--color3,#fff)" d="m17.344 21.048-.676 8.86c.966 0 1.384-.388 1.886-.852l4.526-4.04 9.38 6.414c1.722.894 2.934.422 3.4-1.478L42.016 3.02c.548-2.374-.92-3.302-2.594-2.72L3.228 13.234c-2.47.896-2.434 2.18-.42 2.766l9.252 2.684L33.552 6.132c1.012-.626 1.932-.28 1.176.346l-17.386 14.57z"/></symbol><symbol id="feedback-top-decoration" viewBox="0 0 32 32"><path fill="#c7133e" style="fill:var(--color1,#c7133e)" d="M32 16c0 8.837-7.163 16-16 16S0 24.837 0 16 7.163 0 16 0s16 7.163 16 16z"/></symbol></defs></svg>